<?xml version="1.0" standalone="no"?><!DOCTYPE svg PUBLIC "-//W3C//DTD SVG 1.1//EN" "http://www.w3.org/Graphics/SVG/1.1/DTD/svg11.dtd"><svg t="1776149748440" class="icon" viewBox="0 0 1024 1024" version="1.1" xmlns="http://www.w3.org/2000/svg" p-id="22944" xmlns:xlink="http://www.w3.org/1999/xlink" width="200" height="200"><path d="M512.055362 512.035518m-511.964482 0a511.964482 511.964482 0 1 0 1023.928965 0 511.964482 511.964482 0 1 0-1023.928965 0Z" fill="#E96161" p-id="22945"></path><path d="M581.490545 512.035518l158.005039-151.157514A47.99667 47.99667 0 0 0 673.004197 291.506817L512.055362 445.608126 350.978537 291.506817A47.99667 47.99667 0 0 0 284.615141 360.878004L442.62018 512.035518 284.615141 663.193031A47.99667 47.99667 0 0 0 350.978537 732.564218l161.076825-154.101309L673.004197 732.564218a47.99667 47.99667 0 0 0 66.491387-69.371187z" fill="#FFFFFF" p-id="22946"></path></svg>